G75*
%MOIN*%
%OFA0B0*%
%FSLAX24Y24*%
%IPPOS*%
%LPD*%
%AMOC8*
5,1,8,0,0,1.08239X$1,22.5*
%
%ADD10R,0.0513X0.0474*%
%ADD11R,0.0680X0.0320*%
%ADD12C,0.0820*%
%ADD13R,0.0474X0.0513*%
%ADD14C,0.0352*%
%ADD15C,0.0354*%
%ADD16C,0.0640*%
%ADD17C,0.0635*%
%ADD18C,0.0787*%
%ADD19C,0.0394*%
%ADD20R,0.0820X0.0820*%
%ADD21R,0.0789X0.1025*%
D10*
X009200Y018718D03*
X009200Y019387D03*
X007900Y020568D03*
X007900Y021237D03*
X006100Y028468D03*
X006100Y029137D03*
X004200Y029387D03*
X004200Y028718D03*
X005500Y031618D03*
X005500Y032287D03*
X025200Y022987D03*
X025200Y022318D03*
D11*
X014380Y022302D03*
X014380Y022802D03*
X014380Y023302D03*
X014380Y021802D03*
X012220Y021802D03*
X012220Y022302D03*
X012220Y022802D03*
X012220Y023302D03*
X012320Y019302D03*
X012320Y018802D03*
X012320Y018302D03*
X012320Y017802D03*
X014480Y017802D03*
X014480Y018302D03*
X014480Y018802D03*
X014480Y019302D03*
D12*
X004200Y010252D03*
X004200Y011252D03*
X004200Y012252D03*
X004200Y013252D03*
X004200Y014252D03*
X004200Y015252D03*
X004200Y016252D03*
X004200Y017252D03*
X004200Y018252D03*
X004200Y019252D03*
X004200Y020752D03*
X004200Y021752D03*
X004200Y022752D03*
X004200Y023752D03*
X004200Y024752D03*
X004200Y025752D03*
X004200Y026752D03*
X004200Y027752D03*
X008950Y033452D03*
X010950Y033452D03*
X006000Y033752D03*
X005000Y033752D03*
X004000Y033752D03*
X022800Y031752D03*
X023800Y031752D03*
X024800Y031752D03*
X023200Y027752D03*
X023200Y026752D03*
X023200Y025752D03*
X023200Y024752D03*
X023200Y023752D03*
X023200Y022752D03*
X023200Y020752D03*
X023200Y019752D03*
X023200Y018752D03*
X023200Y017752D03*
X023200Y016752D03*
X023200Y015752D03*
X023200Y014752D03*
X023200Y013752D03*
D13*
X010835Y021452D03*
X010165Y021452D03*
X009965Y018052D03*
X010635Y018052D03*
D14*
X008116Y029552D03*
D15*
X010084Y029552D03*
D16*
X004200Y030652D03*
X004200Y031652D03*
D17*
X008200Y026152D03*
X008200Y024752D03*
X008300Y015852D03*
X008300Y014452D03*
X018200Y014652D03*
X018200Y016052D03*
X018700Y025052D03*
X018700Y026452D03*
X027200Y026452D03*
X027200Y025052D03*
X027100Y013352D03*
X027100Y011952D03*
D18*
X019732Y032152D03*
X016268Y032152D03*
D19*
X017016Y029396D03*
X018000Y029396D03*
X018984Y029396D03*
D20*
X021800Y031752D03*
X007000Y033752D03*
D21*
X012603Y024552D03*
X014197Y024552D03*
X013897Y020552D03*
X012303Y020552D03*
M02*
