%
M48
M72
T01C0.0197
T02C0.0315
T03C0.0320
T04C0.0354
T05C0.0394
T06C0.0400
T07C0.0787
%
T01
X11000Y20552
X11800Y24552
X5500Y30252
X7600Y32252
X22300Y29652
T02
X18700Y26452
X18700Y25052
X18200Y16052
X18200Y14652
X27100Y13352
X27100Y11952
X27200Y25052
X27200Y26452
X8200Y26152
X8200Y24752
X8300Y15852
X8300Y14452
T03
X4200Y30652
X4200Y31652
T04
X8116Y29552
X10084Y29552
T05
X17016Y29396
X18000Y29396
X18984Y29396
T06
X4200Y10252
X4200Y11252
X4200Y12252
X4200Y13252
X4200Y14252
X4200Y15252
X4200Y16252
X4200Y17252
X4200Y18252
X4200Y19252
X4200Y20752
X4200Y21752
X4200Y22752
X4200Y23752
X4200Y24752
X4200Y25752
X4200Y26752
X4200Y27752
X8950Y33452
X10950Y33452
X7000Y33752
X6000Y33752
X5000Y33752
X4000Y33752
X21800Y31752
X22800Y31752
X23800Y31752
X24800Y31752
X23200Y27752
X23200Y26752
X23200Y25752
X23200Y24752
X23200Y23752
X23200Y22752
X23200Y20752
X23200Y19752
X23200Y18752
X23200Y17752
X23200Y16752
X23200Y15752
X23200Y14752
X23200Y13752
T07
X19732Y32152
X16268Y32152
M30
