G75*
%MOIN*%
%OFA0B0*%
%FSLAX24Y24*%
%IPPOS*%
%LPD*%
%AMOC8*
5,1,8,0,0,1.08239X$1,22.5*
%
%ADD10C,0.0820*%
%ADD11R,0.0787X0.0787*%
%ADD12C,0.0770*%
%ADD13C,0.0640*%
%ADD14C,0.0635*%
%ADD15C,0.1280*%
%ADD16C,0.0840*%
%ADD17R,0.0820X0.0820*%
D10*
X004200Y010252D03*
X004200Y011252D03*
X004200Y012252D03*
X004200Y013252D03*
X004200Y014252D03*
X004200Y015252D03*
X004200Y016252D03*
X004200Y017252D03*
X004200Y018252D03*
X004200Y019252D03*
X004200Y020752D03*
X004200Y021752D03*
X004200Y022752D03*
X004200Y023752D03*
X004200Y024752D03*
X004200Y025752D03*
X004200Y026752D03*
X004200Y027752D03*
X008950Y033452D03*
X010950Y033452D03*
X006000Y033752D03*
X005000Y033752D03*
X004000Y033752D03*
X022800Y031752D03*
X023800Y031752D03*
X024800Y031752D03*
X023200Y027752D03*
X023200Y026752D03*
X023200Y025752D03*
X023200Y024752D03*
X023200Y023752D03*
X023200Y022752D03*
X023200Y020752D03*
X023200Y019752D03*
X023200Y018752D03*
X023200Y017752D03*
X023200Y016752D03*
X023200Y015752D03*
X023200Y014752D03*
X023200Y013752D03*
D11*
X010084Y029552D03*
D12*
X008116Y029552D03*
D13*
X004200Y030652D03*
X004200Y031652D03*
D14*
X008200Y026152D03*
X008200Y024752D03*
X008300Y015852D03*
X008300Y014452D03*
X018200Y014652D03*
X018200Y016052D03*
X018700Y025052D03*
X018700Y026452D03*
X027200Y026452D03*
X027200Y025052D03*
X027100Y013352D03*
X027100Y011952D03*
D15*
X019732Y032152D03*
X016268Y032152D03*
D16*
X017016Y029396D03*
X018000Y029396D03*
X018984Y029396D03*
D17*
X021800Y031752D03*
X007000Y033752D03*
M02*
